# xmcd
#
# Track frame offsets:
#	150
#	12120
#	29676
#	37046
#	45384
#	55622
#	66773
#	77426
#	85551
#	96744
#	108327
#	124183
#
# Disc length: 1805 seconds
#
# Revision: 0
# Processed by: cddbd v1.5.2PL0 Copyright (c) Steve Scherf et al.
# Submitted via: EZCDAudioConverter 7.0.6.1
#
DISCID=91070b0c
DTITLE=Peter Howell and John Ferdinando - Tomorrow Come Someday
DYEAR=1900
DGENRE=
TTITLE0=Title Theme
TTITLE1=Someone Like You
TTITLE2=March Of The Civil Servants
TTITLE3=Bluebottle Stripe
TTITLE4=Setting Sun
TTITLE5=On Location
TTITLE6=Everything Has Its Place
TTITLE7=Fishing
TTITLE8=Tomorrow Come Someday
TTITLE9=Love Theme
TTITLE10=Honesty
TTITLE11=Windfall Wood
EXTD=
EXTT0=
EXTT1=
EXTT2=
EXTT3=
EXTT4=
EXTT5=
EXTT6=
EXTT7=
EXTT8=
EXTT9=
EXTT10=
EXTT11=
PLAYORDER=
